<svg class="ar-icon" version="1.1" xmlns="http://www.w3.org/2000/svg" xmlns:xlink="http://www.w3.org/1999/xlink" x="0px" y="0px" viewBox="0 0 500 450" xml:space="preserve">
	<path class="cluster-icon" d="M489.19,345.265L308.572,36.213C282.52-8.344,218.093-8.33,192.066,36.281L11.795,345.302
		c-26.24,44.967,6.192,101.475,58.27,101.475h360.882C483.016,446.776,515.458,390.231,489.19,345.265z M389.038,205.373
		L255.83,433.669c-1.22,2.186-3.148,3.294-5.702,3.294c-2.552,0-4.472-1.108-5.74-3.294l-133.41-228.296
		c-1.3-2.196-1.3-4.242-0.024-6.452c1.277-2.22,3.218-3.145,5.771-3.145h266.573c2.551,0,4.492,0.925,5.769,3.145
		C390.316,201.131,390.316,203.177,389.038,205.373z" />
</svg>
