<svg class="ar-icon" version="1.1" xmlns="http://www.w3.org/2000/svg" xmlns:xlink="http://www.w3.org/1999/xlink" x="0px" y="0px" viewBox="0 0 500 450" xml:space="preserve">
	<path class="headline-icon" d="M489.19,345.265L308.572,36.213C282.52-8.344,218.093-8.33,192.066,36.281L11.795,345.302
		c-26.24,44.967,6.192,101.475,58.27,101.475h360.882C483.016,446.776,515.458,390.231,489.19,345.265z M449.143,392.774
		c-1.824,3.172-4.597,5.002-8.245,5.002H60.087c-3.639,0-6.42-1.83-8.235-5.002c-1.815-3.156-1.815-6.479,0.036-9.616L242.129,56.986
		c1.814-3.119,4.578-4.734,8.199-4.734c3.621,0,6.366,1.574,8.199,4.692l190.578,326.221
		C450.966,386.303,450.966,389.618,449.143,392.774z" />
</svg>
